<svg xmlns="http://www.w3.org/2000/svg" xmlns:xlink="http://www.w3.org/1999/xlink" viewBox="0 0 491.23 115.05"><defs><style>.cls-1{fill:none;}.cls-2{clip-path:url(#clip-path);}.cls-3{clip-path:url(#clip-path-2);}.cls-4{fill:#fff;}.cls-5{fill:#fbd015;}.cls-6{fill:#05569e;}.cls-7{fill:#d11f3e;}</style><clipPath id="clip-path" transform="translate(-17.06 -18.83)"><rect class="cls-1" width="539" height="147"/></clipPath><clipPath id="clip-path-2" transform="translate(-17.06 -18.83)"><rect class="cls-1" x="-82.03" y="-47.22" width="703.06" height="241.45"/></clipPath></defs><g id="Layer_2" data-name="Layer 2"><g id="Capa_1" data-name="Capa 1"><g class="cls-2"><g class="cls-3"><path class="cls-4" d="M104.47,60.74l-7,2.63-.67,1.88-1.56,1c-.44-5.78-.73-8.08-.85-8.08l2.51,0,4.63-5.65-6.73,2.89-.61,2-6.61,5a51.71,51.71,0,0,1,.27,8.68l1.46-1C90,97.6,77.4,108,77.4,108c-3.18-1.47-4-2.54-4-2.54C84.88,92.62,84.35,74.13,84.33,73.47l-1.21.8a60.79,60.79,0,0,0,.17-8.62l-2.12,1.61c0-1.89-.16-3.46-.29-4.56a5.58,5.58,0,0,0,3.68-.89c1.15-.83,1.75-3.28,1.94-4.32s0-1.4-.67-1.81a22.35,22.35,0,0,1-2.51-2.16s1.09-.47,3.65.73c2.76,1.31,4.86.67,7.22-2.82l-2.83.41.25-2a.55.55,0,0,1,.15.08,9.85,9.85,0,0,0,2.36.89c.64.13.62,0,1,.27s.74.34,1,.23c0,0,1.58.89,2.21,0a6.48,6.48,0,0,0,.92.47,4.82,4.82,0,0,0,1.49.4,2.63,2.63,0,0,1,1,.25c1,.5,1.61.24,1.75,0s-.62-1-1.21-1.52a2.59,2.59,0,0,0-1.1-.59c.19-.13.14-.32-.24-.78a7,7,0,0,0-1.63-1.08c0-.37-1.42-1.26-2.27-1.9s-.51-.62-1.42-1.55a88.48,88.48,0,0,0-7.12-5.71c-2.07-1.48-7.74-5.79-12.58-7.36s-7.71-1.21-9.75.06-1.54,3-1.17,4a27.17,27.17,0,0,0,1.48,3.18c.41.81.08.8-.11.92s0,.44-.17.41-.31.21-.55.48a2.14,2.14,0,0,1-.93.35.83.83,0,0,1,.15-.67,2.66,2.66,0,0,0-.87-.25c.06-.13.32-.23.32-.23a3.26,3.26,0,0,0-1,0c.11-.17.2-.2.2-.2a1.43,1.43,0,0,0-1.41.54,5,5,0,0,0-1-1.17c-.38-.35-.57-.86-1-1.26a1.12,1.12,0,0,0,.09-1,2.19,2.19,0,0,0-1.26-1,.55.55,0,0,0,.29-.55c0-.38-.41-.52-.79-.4a2.57,2.57,0,0,0-1.12.38,3.1,3.1,0,0,1-.56,0A2.81,2.81,0,0,0,55.39,32c-2-1.27-4.91-1.62-9.75-.06s-10.52,5.88-12.58,7.36A83.91,83.91,0,0,0,26,45c-.91.93-.56.9-1.41,1.55s-2.29,1.54-2.28,1.9a7.24,7.24,0,0,0-1.64,1.08c-.38.46-.43.65-.24.78a2.59,2.59,0,0,0-1.09.59c-.59.49-1.35,1.28-1.21,1.52s.75.5,1.75,0a2.35,2.35,0,0,1,1-.25,4.75,4.75,0,0,0,1.49-.4,7.81,7.81,0,0,0,.92-.47c.64.89,2.21,0,2.21,0a1.16,1.16,0,0,0,.95-.23c.4-.24.38-.14,1-.27A9,9,0,0,0,29.74,50a.6.6,0,0,1,.16-.08l.25,2-2.83-.41c2.35,3.49,4.45,4.13,7.21,2.82,2.56-1.2,3.66-.73,3.66-.73a23.28,23.28,0,0,1-2.51,2.16c-.64.41-.86.77-.67,1.81S35.8,61,37,61.79a5.58,5.58,0,0,0,3.68.89c-.13,1.09-.24,2.67-.29,4.56L38.2,65.62a62.63,62.63,0,0,0,.17,8.63l-1.2-.8c0,.66-.55,19.15,10.93,31.94,0,0-.83,1.07-4,2.54,0,0-12.59-10.36-11.94-37.88l1.46,1a50.9,50.9,0,0,1,.26-8.69l-6.58-5-.61-2L20,52.48l4.63,5.65,2.51,0c-.13,0-.41,2.3-.86,8.08l-1.55-1L24,63.35l-7-2.63L22,66.21l2.45-.15s-2.51,24.37,5.77,37.48c6.89,10.91,16.92,11,26,4.87a58.8,58.8,0,0,1-4.51,10,24.31,24.31,0,0,1,3.68.33s-.38,1.58-.58,2.06-.16,1.29.78,1.34,2.17.14,2.17.14-.17,1.15-.19,1.75c0,.82-.11,1.16,3.16,1.3,3.43-.14,3.2-.48,3.17-1.3,0-.61-.18-1.75-.18-1.75s1.23-.12,2.17-.14,1-.85.77-1.34-.58-2.06-.58-2.06a24.48,24.48,0,0,1,3.69-.33,61.87,61.87,0,0,1-4.52-10c9.13,6.13,19.16,6,26.06-4.87C99.6,90.43,97.1,66.06,97.1,66.06l2.45.15ZM64.65,51.31c.27-1.23.49-2.26.75-2.08a.73.73,0,0,0,.86,0c.16-.21.21-.24.34,0s.89.59,1.4-.29.36-.43.51-.09.54.48,1,.13a7.52,7.52,0,0,1,1.11-.81c.31-.15.33-.08.5-.39s.46-.46.48-.67-.19-.44.11-.61.45-.27.72-.14.35-.13.49,0a.3.3,0,0,0,.51,0c.18-.19.3-.49.51-.14s.67.43.76.25.17-.19.3.08a1.06,1.06,0,0,0,1.08.4s.46.63,1,.54.78-.38.79-.76-.19-1.67.19-1.39.36.16.47-.06.29,0,.48,0,.16-.29.47,0,.35.47.65.56a1.31,1.31,0,0,1,.75.49c.32.34.67.7,1.24.49,0,0,.36.48.75.45,0,0,.78.85,1.22.72a3.72,3.72,0,0,0,1,.28c.26,0,.3-.2.46-.12s.09-.3.33,0,.67.75.94.67a2.9,2.9,0,0,0,1.13.6c.5.07.64.21.8.21s.08-.16.37.07a1.09,1.09,0,0,0,1,.22,1,1,0,0,1,.62-.07,1,1,0,0,0,.3,0,3.16,3.16,0,0,1-3.78,1.11c-2.57-.79-3.34-.41-3.87.12a10.85,10.85,0,0,0-2,3.09c-.31,1-.15,1.74,1.75,4a17,17,0,0,1-5.75-.9c-3.27-1-6.29-1.43-9.34-.06l-1.48.68c-.34-.34-1.18-1.22-1.5-1.61a9,9,0,0,0,.19-1.6,2.16,2.16,0,0,0-.28-1.31,2,2,0,0,1-.29-2M77.74,62.07a13.88,13.88,0,0,1-7.53,2,15.16,15.16,0,0,1-6.57-1.39,13.34,13.34,0,0,1,6.29-1.89,16.78,16.78,0,0,1,7,1l.82.28m-15-5.19.06,0a3,3,0,0,0,1.31.16c.21.13,1.11,1,1.44,1.3A14,14,0,0,0,63,60.06a9.62,9.62,0,0,1-.39-2.51c0-.24.08-.47.11-.67M58.16,39.5a3.34,3.34,0,0,1,1.29,1.23c.06.18.12.35.17.51a2.72,2.72,0,0,0-1.19-.09,5.53,5.53,0,0,0-1.63-1.74,2.19,2.19,0,0,1,1.36.09m-3.06-.24a.11.11,0,0,0,0-.06A4.9,4.9,0,0,0,58,41.29a1.34,1.34,0,0,0-.36.26,3.91,3.91,0,0,1-1.73-.47c-.24-.28-.35-.51-.54-.48s0-.29-.17-.41-.51-.11-.11-.93m-.63,10.19a4.82,4.82,0,0,0,.41,1.37,3.41,3.41,0,0,0-.17.33,4.28,4.28,0,0,0-.61-1.73,1,1,0,0,0,.37,0m-16,8.65c1.9-2.22,2.06-3,1.74-4a10.44,10.44,0,0,0-2-3.08c-.54-.54-1.3-.92-3.87-.12a3.16,3.16,0,0,1-3.78-1.11,1.38,1.38,0,0,0,.28,0,1,1,0,0,1,.63.07,1.09,1.09,0,0,0,1-.22c.29-.22.21-.08.36-.08s.3-.13.79-.21a2.9,2.9,0,0,0,1.13-.6c.27.08.7-.4.94-.67s.17.13.33,0,.21.08.46.12a3.83,3.83,0,0,0,1-.28c.44.13,1.22-.72,1.22-.72.38,0,.75-.45.75-.45.57.21.92-.16,1.24-.49a1.21,1.21,0,0,1,.75-.49c.3-.08.33-.24.65-.56s.28-.07.48,0,.37-.19.48,0,.1.35.48.06.17,1,.19,1.39.24.66.8.76,1-.54,1-.54a1,1,0,0,0,1.08-.4c.13-.27.21-.25.3-.08s.56.09.77-.25.33,0,.51.14a.3.3,0,0,0,.51,0c.14-.17.23.08.49,0s.41,0,.71.14.1.4.11.61.31.35.47.67.2.24.51.39a7.52,7.52,0,0,1,1.11.81.6.6,0,0,0,.94-.16c.07.28.16.75.3.75s.25-.36.35-.58c.14.19.3.14.45.2a4.55,4.55,0,0,0,.17,4.38h0c.06,0,.12-.08.17-.22a5.81,5.81,0,0,1,.06,1.59,7.48,7.48,0,0,0-1,2.15c-3-1.31-6-.9-9.22.13a17.56,17.56,0,0,1-5.77.92m13.92,2.72A12.13,12.13,0,0,1,50.83,64a13.53,13.53,0,0,1-7-2l.82-.28a16.78,16.78,0,0,1,7-1l.77,0M41.56,62.51c.29,0,.58-.07.92-.14.94.94,3.58,3,8.55,3,6.44,0,9.73-3.09,9.73-3.09s3.28,3.1,9.72,3.1c5,0,7.61-2.08,8.55-3,.34.08.63.06.92.11.78,6.47-.52,15.66-.52,15.66H42.07S40.78,69,41.56,62.51m.52,16.77H79.44a40.19,40.19,0,0,1-3.62,13.14H45.7a40.19,40.19,0,0,1-3.62-13.14m18.68,30.6c-11.2-8.11-14.49-16.4-14.49-16.4h29s-3.28,8.3-14.48,16.4" transform="translate(-17.06 -18.83)"/></g><g class="cls-3"><path class="cls-4" d="M67.76,77.29a3,3,0,0,0,1.75-.63,2.88,2.88,0,0,0,.83.13,2.73,2.73,0,0,0,2.36-1.63A2.23,2.23,0,0,0,74,74.94a2.54,2.54,0,0,0,1.14-2.72s.09-.09.14-.12a2.22,2.22,0,0,0,0-3.1.3.3,0,0,0-.08-.08,1.1,1.1,0,0,0,.47-.87c0-.64-.76-1.14-1.47-1.14s-1.46.5-1.46,1.14h0a3.79,3.79,0,0,0-.69.37,1.64,1.64,0,0,0-.5,1.19,2,2,0,0,0-.33.15,1.79,1.79,0,0,0-.43.34,2,2,0,0,0-.61-.07,2.34,2.34,0,0,0-.87.19,2.87,2.87,0,0,0-1.72-.52,3.83,3.83,0,0,0,.16,7.58" transform="translate(-17.06 -18.83)"/></g><g class="cls-3"><path class="cls-4" d="M46.35,72.1a.81.81,0,0,0,.14.12,2.53,2.53,0,0,0,1.13,2.72,2.23,2.23,0,0,0,1.34.22,2.75,2.75,0,0,0,2.36,1.63,2.33,2.33,0,0,0,.83-.13,3,3,0,0,0,1.75.63A3.83,3.83,0,0,0,54,69.7a2.89,2.89,0,0,0-1.72.52,2.56,2.56,0,0,0-.87-.19,2.15,2.15,0,0,0-.62.07,1.92,1.92,0,0,0-.46-.33,1.8,1.8,0,0,0-.38-.16,1.56,1.56,0,0,0-.46-1.19,4.6,4.6,0,0,0-.75-.38h0a1.34,1.34,0,0,0-1.41-1.14A1.28,1.28,0,0,0,46,68a1,1,0,0,0,.43.87s-.06,0-.09.09a2.24,2.24,0,0,0,0,3.11" transform="translate(-17.06 -18.83)"/></g><g class="cls-3"><path class="cls-4" d="M60.88,91.63l1.55-2.36-.3-1.11,1.22.17c.08.51.41,1.09.9,1.16a5.88,5.88,0,0,0,1.31,0L66,89a10.58,10.58,0,0,0-1.27-1,24.41,24.41,0,0,0-1.15-6.62c-.41-1.17-1-1.2-2-1.06a18,18,0,0,0-3.83,1.82l-.19,1.63,1,.1s-.55,1.83-.74,2.48,0,.63.32.88a8.73,8.73,0,0,0,1.69.56l-.38,1.69Z" transform="translate(-17.06 -18.83)"/></g><g class="cls-3"><path class="cls-4" d="M57.23,71c.56,3.22,2.63,3.51,3.45,3.49a10.85,10.85,0,0,1-.21,2l1,.7a17.74,17.74,0,0,0,0-3.28c2.45-.35,2.95-4,2.95-4a4.61,4.61,0,0,0-3,3.58,6.65,6.65,0,0,0-.64-2.3,3.11,3.11,0,0,0,2.75-3.08,3.06,3.06,0,0,0-1-2.26l.51-1L62,65.16l-.44-.83-.79.64-.48-.64-.51.74-1-.54.27.87a3.09,3.09,0,0,0-1.73,2.77,3.12,3.12,0,0,0,2.58,3.06,5.66,5.66,0,0,1,.73,2.62A7.11,7.11,0,0,0,57.23,71m3.36.18c-.75,0-1.35-1.34-1.35-3s.61-3,1.35-3,1.35,1.34,1.35,3-.6,3-1.35,3" transform="translate(-17.06 -18.83)"/></g><g class="cls-3"><path class="cls-4" d="M63.3,97.48a2.55,2.55,0,0,1,0-2H59.57a2.46,2.46,0,0,0,0,2Z" transform="translate(-17.06 -18.83)"/></g><g class="cls-3"><path class="cls-4" d="M59.57,102.14a4.35,4.35,0,0,0,0,2.67H63.3a4.5,4.5,0,0,1,0-2.67Z" transform="translate(-17.06 -18.83)"/></g><g class="cls-3"><polygon class="cls-4" points="47.13 80.65 47.96 79.32 42.26 79.32 41.64 78.65 41.38 78.65 39.26 78.65 39.55 79.32 40.13 79.32 40.73 80.65 47.13 80.65"/></g><g class="cls-3"><polygon class="cls-4" points="47.08 86.65 46.87 86.65 45.93 86.65 45.12 86.65 44.18 86.65 43.57 86.65 42.57 86.65 42.25 86.65 41.91 85.98 40.66 85.98 41.04 86.74 42.06 87.3 46.98 87.3 47.97 86.73 48.11 85.98 47.31 85.98 47.08 86.65"/></g><g class="cls-3"><path class="cls-4" d="M218.37,61a24.85,24.85,0,0,0-16.82-6.67c-14.59,0-23.05,10.95-23,24.12,0,11.38,6.76,22.43,23,22.43a22.24,22.24,0,0,0,15.22-5.52V82.73H199.42v-8.9H226V99.37a31.36,31.36,0,0,1-24.47,10.86c-22.87,0-32.75-15.22-32.75-31.77,0-18,11.48-33.28,32.75-33.28a32.78,32.78,0,0,1,23.05,9.42Z" transform="translate(-17.06 -18.83)"/></g><g class="cls-3"><path class="cls-4" d="M298.64,78.1c0,16.83-10.23,32.23-31.86,32.23s-31.86-15.75-31.86-32.14c0-18.95,13.26-32.64,32-32.64,21.26.08,31.68,15.74,31.68,32.55m-31.86,23.06c15.49,0,22-11,22-22.87,0-11.48-6.59-23.4-21.8-23.67-14.41,0-22.16,10.06-22.16,23.67.17,11,6.58,22.87,22,22.87" transform="translate(-17.06 -18.83)"/></g><g class="cls-3"><polygon class="cls-4" points="320.64 90.43 310.23 90.43 284.34 27.87 295.55 27.87 315.39 78.5 335.32 27.87 346.45 27.87 320.64 90.43"/></g><g class="cls-3"><path class="cls-4" d="M375.88,104.09c0,7.56-11.3,7.56-11.3,0s11.3-7.47,11.3,0" transform="translate(-17.06 -18.83)"/></g><g class="cls-3"><path class="cls-4" d="M439.86,101a32.64,32.64,0,0,1-23.4,9.26c-22.6,0-32.75-15.58-32.84-31.95s10.59-32.66,32.84-32.66a31.84,31.84,0,0,1,22.78,9.43l-6.67,6.41a22.89,22.89,0,0,0-16.11-6.41c-15.84,0-23,11.66-23,23.14s6.85,22.69,23,22.69A24.15,24.15,0,0,0,433,94.13Z" transform="translate(-17.06 -18.83)"/></g><g class="cls-3"><path class="cls-4" d="M508.29,78.1c0,16.83-10.23,32.23-31.86,32.23s-31.86-15.75-31.86-32.14c0-18.95,13.26-32.64,32-32.64,21.27.08,31.68,15.74,31.68,32.55m-31.86,23.06c15.49,0,22-11,22-22.87,0-11.48-6.59-23.4-21.8-23.67-14.41,0-22.16,10.06-22.16,23.67.18,11,6.59,22.87,22,22.87" transform="translate(-17.06 -18.83)"/></g><g class="cls-3"><rect class="cls-5" x="112.84" width="9.47" height="45.8"/></g><g class="cls-3"><rect class="cls-6" x="112.84" y="45.75" width="9.47" height="34.6"/></g><g class="cls-3"><rect class="cls-7" x="112.85" y="80.51" width="9.47" height="34.54"/></g></g></g></g></svg>